<?xml version="1.0" encoding="UTF-8"?>
<svg id="Capa_2" data-name="Capa 2" xmlns="http://www.w3.org/2000/svg" xmlns:xlink="http://www.w3.org/1999/xlink" viewBox="0 0 836.77 836.77">
  <defs>
    <style>
      .cls-1 {
        fill: url(#Degradado_sin_nombre_4);
        stroke-width: 0px;
      }
    </style>
    <linearGradient id="Degradado_sin_nombre_4" data-name="Degradado sin nombre 4" x1="0" y1="129.57" x2="836.77" y2="129.57" gradientTransform="translate(0 288.82)" gradientUnits="userSpaceOnUse">
      <stop offset="0" stop-color="#8277b0"/>
      <stop offset="1" stop-color="#bfb6e7"/>
    </linearGradient>
  </defs>
  <g id="Capa_1-2" data-name="Capa 1">
    <path class="cls-1" d="M302.31,597.1c9.19-15.03,15.03-32.57,15.03-50.94,0-52.61-42.59-95.2-95.2-95.2s-95.2,42.59-95.2,95.2,42.59,95.2,95.2,95.2c15.87,0,30.06-3.34,42.59-10.02l45.93,45.93,28.39-42.59-36.74-37.58ZM222.14,591.25c-25.05,0-45.09-20.04-45.09-45.1s20.04-45.1,45.09-45.1,45.09,20.04,45.09,45.1-20.04,45.1-45.09,45.1ZM836.77,258.88c0-69.31-26.72-134.45-75.99-182.89C708.17,23.38,638.01-1.67,568.7.84c-53.45,1.67-106.06,20.04-150.32,54.28h0C373.29,19.21,317.34,0,258.88,0,189.57,0,124.43,26.72,75.99,75.99,26.72,124.43,0,189.57,0,258.88c0,58.46,19.21,114.41,55.12,159.5C19.21,463.48,0,519.43,0,577.89c0,69.31,26.72,134.45,75.99,182.89,49.27,49.27,113.57,75.99,182.89,75.99,58.46,0,114.41-19.21,159.5-55.12,45.09,35.07,98.54,53.45,151.99,55.12h7.52c65.97,0,132.78-25.05,182.89-75.99,49.27-49.27,75.99-113.57,75.99-182.89,0-58.46-19.21-114.41-55.12-159.5,35.91-45.93,55.12-101.05,55.12-159.5ZM50.11,258.88c0-55.95,21.71-108.56,60.96-147.81,39.25-39.25,91.86-60.96,147.81-60.96,44.26,0,86.85,14.2,121.93,39.25l-132.78,132.78-158.67,158.67c-25.05-35.91-39.25-77.66-39.25-121.92ZM356.59,652.21l-17.54-17.54-37.58-37.58c9.19-15.03,15.03-32.57,15.03-50.94,0-52.61-42.59-95.2-95.2-95.2s-95.2,42.59-95.2,95.2,42.59,95.2,95.2,95.2c15.87,0,30.06-3.34,42.59-10.02l45.93,45.93,69.31,69.31h0c-35.08,25.89-77.66,39.25-121.93,39.25-55.95,0-108.56-21.71-147.81-60.96-39.25-39.25-60.96-91.86-60.96-147.81s21.71-108.56,60.96-147.81l170.36-170.36,138.63-136.12,129.44,129.44c-8.35,14.2-13.36,30.9-13.36,48.44,0,52.61,42.59,95.2,95.2,95.2s95.2-42.59,95.2-95.2-42.59-95.2-95.2-95.2c-16.7,0-31.73,4.18-45.09,11.69l-128.6-128.61c30.9-22.55,66.81-35.07,102.72-38.41,6.68-.84,12.53-.84,19.21-.84,53.45,0,106.89,20.04,147.81,60.96,39.25,39.25,60.96,91.86,60.96,147.81s-21.71,108.56-60.96,147.81l-307.31,307.32-61.79-60.96ZM267.23,546.15c0,25.05-20.04,45.1-45.09,45.1s-45.09-20.04-45.09-45.1,20.04-45.1,45.09-45.1,45.09,20.04,45.09,45.1ZM584.57,301.47c0-25.05,20.04-45.1,45.09-45.1s45.09,20.04,45.09,45.1-20.04,45.1-45.09,45.1-45.09-20.88-45.09-45.1ZM786.67,577.05c0,55.95-21.71,108.56-60.96,147.81-39.25,39.25-91.86,60.96-147.81,60.96h-7.52c-41.75-1.67-81.84-15.03-115.24-39.25l291.45-291.45c25.88,35.07,40.08,77.66,40.08,121.92ZM302.31,597.1c9.19-15.03,15.03-32.57,15.03-50.94,0-52.61-42.59-95.2-95.2-95.2s-95.2,42.59-95.2,95.2,42.59,95.2,95.2,95.2c15.87,0,30.06-3.34,42.59-10.02l45.93,45.93,28.39-42.59-36.74-37.58ZM222.14,591.25c-25.05,0-45.09-20.04-45.09-45.1s20.04-45.1,45.09-45.1,45.09,20.04,45.09,45.1-20.04,45.1-45.09,45.1Z"/>
  </g>
</svg>